# xmcd
#
# Track frame offsets:
#	150
#	13499
#	24496
#	38466
#	52223
#	63302
#	78684
#	98079
#	114056
#	126055
#	137487
#	156642
#	165649
#	182366
#	196230
#	208172
#	225492
#	235664
#	248720
#	262574
#	278616
#	293013
#	313660
#
# Disc length: 4349 seconds
#
# Revision: 0
# Processed by: cddbd v1.5PL3 Copyright (c) Steve Scherf et al.
# Submitted via: dBpowerAMP V4.0
#
DISCID=2f10fb17
DTITLE=Dusty Springfield - Goin' Back-The Very Best Of
DYEAR=1900
DGENRE=
TTITLE0=Wishin' And Hopin'
TTITLE1=Little By Little
TTITLE2=All Cried Out
TTITLE3=Losing You
TTITLE4=Son Of A Preacher Man
TTITLE5=All I See Is You
TTITLE6=What Have I Done To Deserve This
TTITLE7=Goin' Back
TTITLE8=Island Of Dreams
TTITLE9=I'll Try Anything
TTITLE10=Reputation
TTITLE11=Stay Awhile
TTITLE12=Time And Time Again
TTITLE13=I Just Don't Know What To Do With Myself
TTITLE14=I Only Want To Be With You
TTITLE15=Windmills Of Your Mind
TTITLE16=Silver Threads And Golden Needles
TTITLE17=Say I Won't Be There
TTITLE18=Some Of Your Lovin'
TTITLE19=The Look Of Love
TTITLE20=I Close My Eyes And Count To Ten
TTITLE21=Nothing Has Been Proved
TTITLE22=You Don't Have To Say You Love Me
EXTD=
EXTT0=
EXTT1=
EXTT2=
EXTT3=
EXTT4=
EXTT5=
EXTT6=
EXTT7=
EXTT8=
EXTT9=
EXTT10=
EXTT11=
EXTT12=
EXTT13=
EXTT14=
EXTT15=
EXTT16=
EXTT17=
EXTT18=
EXTT19=
EXTT20=
EXTT21=
EXTT22=
PLAYORDER=
